<svg id="Layer_1" data-name="Layer 1" xmlns="http://www.w3.org/2000/svg" viewBox="0 0 237.43 248">
  <defs>
    <style>
      .cls-1 {
        fill: #ff4f4e;
      }

      .cls-2 {
        fill: #c42c31;
      }

      .cls-3 {
        fill: #fff7f1;
      }

      .cls-4 {
        fill: #ffb8a1;
      }

      .cls-5 {
        fill: #3f2037;
      }

      .cls-6 {
        fill: #ff8a8a;
      }

      .cls-7 {
        opacity: 0.5;
      }

      .cls-8 {
        fill: #734669;
      }
    </style>
  </defs>
  <g>
    <path class="cls-1" d="M247.21,256H9.78s2.39-29.62,16.72-35.36c5.79-2.31,19.07-8.92,32.84-16,5.11-2.62,10.29-5.29,15.18-7.84l1.53-.8c4-2.09,7.8-4.06,11.14-5.83,7.38-3.87,12.66-6.67,13.66-7.2l.18-.09,1.81.4q3.41.76,6.83,1.31c2.27.37,4.53.66,6.81.88A113.36,113.36,0,0,0,154,182.92h.06s5.58,2.87,13.78,7c3.4,1.74,7.26,3.71,11.37,5.79l1.56.79,6.14,3.09c2.22,1.12,4.46,2.25,6.71,3.37,15.31,7.67,30.64,15.15,36.88,17.65C244.82,226.38,247.21,256,247.21,256Z" transform="translate(-9.78 -8)"/>
    <path class="cls-2" d="M180.76,196.53c-.82,2.37-1.75,4.8-2.83,7.22-4.25,9.57-9.83,17.19-16.58,22.67-8.46,6.88-18.78,10.36-30.66,10.36-24.83,0-40.16-14.55-48.64-26.75a88.62,88.62,0,0,1-7.53-13.2l1.53-.8a87.56,87.56,0,0,0,7.45,13.05c12,17.23,27.88,26,47.19,26,20.86,0,36.22-10.77,45.66-32,1.09-2.45,2-4.91,2.85-7.31Z" transform="translate(-9.78 -8)"/>
    <path class="cls-3" d="M167.83,190c-3,12.87-14.32,32.44-39.34,32.44-27.45,0-37.77-22.22-41.3-32.19,7.38-3.87,12.66-6.67,13.66-7.2l.18-.09,1.81.4q3.41.76,6.83,1.31c2.27.37,4.53.66,6.81.88A113.36,113.36,0,0,0,154,182.92h.06S159.63,185.78,167.83,190Z" transform="translate(-9.78 -8)"/>
    <g>
      <g>
        <path class="cls-4" d="M155.26,189s-4.66,14.64-26,14.64c-25,0-30.83-13.31-30.83-13.31A107.75,107.75,0,0,0,103,174.46h0a84.83,84.83,0,0,0,2-19.76L148.89,153c.4,3.71,1.06,8.08,1.81,12.48C152.68,177.12,155.26,189,155.26,189Z" transform="translate(-9.78 -8)"/>
        <path class="cls-5" d="M150.7,165.44c-6.8,4.72-21.64,11.76-47.65,9a84.83,84.83,0,0,0,2-19.76L148.89,153C149.29,156.67,150,161,150.7,165.44Z" transform="translate(-9.78 -8)"/>
      </g>
      <g>
        <path class="cls-4" d="M88.31,97.52S74.74,79.05,64.19,90s9.8,49,28.26,40.71Z" transform="translate(-9.78 -8)"/>
        <path class="cls-6" d="M81.84,119.34a.94.94,0,0,1-.93-.8c-1.78-12.84-12-20.71-12.09-20.79A.94.94,0,1,1,70,96.26c.44.33,10.92,8.43,12.81,22a.93.93,0,0,1-.8,1Z" transform="translate(-9.78 -8)"/>
        <path class="cls-6" d="M79,110.13a.93.93,0,0,1-.77-.42c-1.36-2-5.44-2.21-6.89-2.12a.93.93,0,0,1-1-.88,1,1,0,0,1,.88-1c.25,0,6.32-.35,8.55,3a1,1,0,0,1-.25,1.31A.92.92,0,0,1,79,110.13Z" transform="translate(-9.78 -8)"/>
      </g>
      <g>
        <path class="cls-4" d="M171,97.52S184.54,79.05,195.09,90s-9.8,49-28.27,40.71Z" transform="translate(-9.78 -8)"/>
        <path class="cls-6" d="M177.44,119.34h-.13a.93.93,0,0,1-.8-1c1.89-13.59,12.36-21.69,12.81-22a.92.92,0,0,1,1.31.18.94.94,0,0,1-.18,1.31c-.1.08-10.3,8-12.08,20.78A.94.94,0,0,1,177.44,119.34Z" transform="translate(-9.78 -8)"/>
        <path class="cls-6" d="M180.28,110.13a.91.91,0,0,1-.52-.16.94.94,0,0,1-.25-1.31c2.23-3.3,8.29-3,8.55-3a1,1,0,0,1,.88,1,1,1,0,0,1-1,.88c-1.45-.09-5.52.12-6.88,2.13A1,1,0,0,1,180.28,110.13Z" transform="translate(-9.78 -8)"/>
      </g>
      <g>
        <path class="cls-4" d="M138.3,40.25c-38.67,0-62.69,20-58.37,66,2.58,27.45,16.7,61.42,49.28,62.19,33.94.79,47.57-36.17,52.42-64.22C186.06,78.57,173,50.12,148.25,42A54,54,0,0,0,138.3,40.25Z" transform="translate(-9.78 -8)"/>
        <path class="cls-5" d="M79.49,97.87S75,54.27,74.86,44.61C74.53,21.11,98.24,7.93,133,8c28.06.06,31.52,12.35,33.78,22.29,0,0,20.75.54,23.91,15s-10,58.15-10,58.15a143.88,143.88,0,0,1-7.58-24.52c-3.16-14.46-7.28-23.32-16.32-23.5s-20.35.27-32.55,7.5-24.42,8.14-33,1.81C91.27,64.73,89,86.57,79.49,97.87Z" transform="translate(-9.78 -8)"/>
      </g>
      <g class="cls-7">
        <path class="cls-6" d="M113.16,116.07c0,3.28-6.06,5.94-13.53,5.94s-13.53-2.66-13.53-5.94,6.06-5.94,13.53-5.94S113.16,112.79,113.16,116.07Z" transform="translate(-9.78 -8)"/>
      </g>
      <g class="cls-7">
        <path class="cls-6" d="M176.81,116.07c0,3.28-6.06,5.94-13.53,5.94s-13.53-2.66-13.53-5.94,6.06-5.94,13.53-5.94S176.81,112.79,176.81,116.07Z" transform="translate(-9.78 -8)"/>
      </g>
      <path class="cls-5" d="M181.89,97.87a245.4,245.4,0,0,1-6.62,47.93c-10.13,42.8-44.92,37.1-44.92,37.1s-34.11,5.7-44.25-37.1a246.34,246.34,0,0,1-6.62-47.93L85,88.59s3.89,36.88,18,43.27c0,0,6.27-9.54,27.3-.62,21-8.92,28,.62,28,.62,14.11-6.39,18-43.27,18-43.27Z" transform="translate(-9.78 -8)"/>
      <path class="cls-6" d="M131.92,127.61a13.37,13.37,0,0,1-5.33-1.27,1.35,1.35,0,0,1-.8-1.4l2.72-20.84a1.34,1.34,0,1,1,2.65.34l-2.58,19.82c2.66,1,4.72.89,6.41-.26a1.34,1.34,0,0,1,1.5,2.22A7.94,7.94,0,0,1,131.92,127.61Z" transform="translate(-9.78 -8)"/>
      <path class="cls-8" d="M129.44,143.8a30.82,30.82,0,0,1-13.58-3.22,1.33,1.33,0,1,1,1.3-2.33c.65.36,15.46,8.34,28.28-3.52a1.34,1.34,0,1,1,1.82,2A25.61,25.61,0,0,1,129.44,143.8Z" transform="translate(-9.78 -8)"/>
      <path class="cls-8" d="M131.61,151.45a20.67,20.67,0,0,1-5.62-.79,1.34,1.34,0,0,1,.79-2.56h0c.06,0,6,1.81,10.16-.55a1.34,1.34,0,1,1,1.32,2.33A13.47,13.47,0,0,1,131.61,151.45Z" transform="translate(-9.78 -8)"/>
      <path class="cls-5" d="M103.36,92A36.29,36.29,0,0,1,114.53,88a3.49,3.49,0,0,0,2.83-4.62l-.15-.42a3.47,3.47,0,0,0-3.63-2.29c-3.65.39-10.12,1.67-14.33,5.87A3.46,3.46,0,0,0,98.41,90h0A3.47,3.47,0,0,0,103.36,92Z" transform="translate(-9.78 -8)"/>
      <path class="cls-5" d="M158.72,92A36.29,36.29,0,0,0,147.55,88a3.49,3.49,0,0,1-2.83-4.62l.15-.42a3.47,3.47,0,0,1,3.63-2.29c3.65.39,10.11,1.67,14.33,5.87a3.46,3.46,0,0,1,.84,3.49h0A3.47,3.47,0,0,1,158.72,92Z" transform="translate(-9.78 -8)"/>
      <g>
        <path class="cls-5" d="M114.1,102.23c.07,3.63-1.27,6.59-3,6.62s-3.15-2.89-3.21-6.51,1.27-6.59,3-6.62S114,98.61,114.1,102.23Z" transform="translate(-9.78 -8)"/>
        <path class="cls-5" d="M146.49,102.23c-.06,3.63,1.28,6.59,3,6.62s3.15-2.89,3.21-6.51-1.27-6.59-3-6.62S146.56,98.61,146.49,102.23Z" transform="translate(-9.78 -8)"/>
      </g>
    </g>
  </g>
</svg>
